Coordinates
version=1
nRows=8
nColumns=42
inDegrees=yes

Units are S.I. units (second, meters, Newtons, ...)
If the header above contains a line with 'inDegrees', this indicates whether rotational values are in degrees (yes) or radians (no).

endheader
time	pelvis_tilt	pelvis_list	pelvis_rotation	pelvis_tx	pelvis_ty	pelvis_tz	hip_flexion_r	hip_adduction_r	hip_rotation_r	knee_angle_r	knee_angle_r_beta	ankle_angle_r	subtalar_angle_r	mtp_angle_r	hip_flexion_l	hip_adduction_l	hip_rotation_l	knee_angle_l	knee_angle_l_beta	ankle_angle_l	subtalar_angle_l	mtp_angle_l	lumbar_extension	lumbar_bending	lumbar_rotation	sh_tx_r	sh_ty_r	sh_tz_r	sh_plane_elev_r	sh_elev_r	sh_axial_rot_r	elbow_flex_r	pro_sup_r	sh_tx_l	sh_ty_l	sh_tz_l	sh_plane_elev_l	sh_elev_l	sh_axial_rot_l	elbow_flex_l	pro_sup_l
      5.20338980	     -4.77656799	     -1.11776776	      1.16254847	      0.21868576	      0.94772693	     -0.04986853	      4.01216112	     -3.40108624	     -9.23851723	      3.35352530	      0.05853006	      3.25292387	     -7.69895440	     -7.49999987	      3.71328041	     -4.04253829	     -8.93741930	      2.40457955	      0.04196783	      8.78488843	      0.16700986	     -7.49999987	      3.69294522	     -0.67510917	     -1.51425982	     -0.02156383	     -0.00619443	     -0.00601754	    -24.17536695	      4.14582320	      6.38565954	     31.30980138	    106.69509169	     -0.02501434	      0.01232578	     -0.00521208	     64.55386673	    109.68081441	      1.72642527	      8.19215572	      4.78381839
      5.22033900	     -4.77548430	     -1.13048898	      1.20335582	      0.21835685	      0.94798939	     -0.04986219	      3.99817159	     -3.37627654	     -9.10069757	      3.31280692	      0.05781939	      3.11312500	     -7.94347164	     -7.49999987	      3.71382719	     -4.04831471	     -8.93874225	      2.38433303	      0.04161446	      8.96527948	      0.34234640	     -7.49999987	      3.65405201	     -0.58152637	     -2.00918693	     -0.02083274	     -0.00580621	     -0.00601271	    -24.20858866	      4.05701583	      6.29308938	     31.79054064	    105.27341623	     -0.02635673	      0.01210050	     -0.00522597	     64.08990376	    109.83997859	      0.47845613	      7.91826508	      5.73358723
      5.23728810	     -4.71688150	     -1.07956192	      1.15106182	      0.21931800	      0.94527175	     -0.04968665	      3.75258190	     -3.37232900	     -8.90772650	      2.95937615	      0.05165086	      2.88145272	     -8.08485675	     -7.49999987	      3.30733615	     -3.91980950	     -8.71820813	      1.74495470	      0.03045520	      8.64376450	     -0.12304694	     -7.49999987	      3.21026668	     -0.96190866	     -1.33681132	     -0.02614191	     -0.00833865	     -0.00639239	    -24.94116613	      3.84019183	      5.16744943	     32.34702366	    113.56337044	     -0.02836863	      0.01230743	     -0.00532925	     65.57211780	    110.47813711	      3.18304439	      6.21724685	      2.23041321
      5.25423730	     -4.81186254	     -1.06040474	      1.15799495	      0.21898198	      0.94858653	     -0.04950278	      3.87689464	     -3.39168533	     -8.75420737	      3.02682895	      0.05282813	      2.96796867	     -8.09576241	     -7.49999987	      3.38753525	     -3.88017635	     -8.66549691	      1.69019305	      0.02949943	      8.65108467	     -0.20255374	     -7.49999987	      3.34491023	     -0.94848531	     -1.50519071	     -0.02602888	     -0.00812885	     -0.00634188	    -24.19579174	      3.98494173	      5.08561397	     32.39670406	    113.45184738	     -0.02829009	      0.01233985	     -0.00528843	     65.52777324	    110.51288361	      2.91399380	      6.59874053	      2.20372878
      5.27118640	     -5.00471262	     -1.05615790	      1.12479950	      0.21873879	      0.94808273	     -0.04955176	      4.33032251	     -3.46304139	     -8.60438377	      3.47916758	      0.06072293	      3.18563435	     -8.09130895	     -7.49999987	      3.84201588	     -3.89026062	     -8.63954621	      2.16141871	      0.03772387	      8.88190363	     -0.40712256	     -7.49999987	      3.96495506	     -0.65759202	     -2.06623790	     -0.02141323	     -0.00534683	     -0.00590721	    -23.53839321	      4.45847518	      7.39833424	     32.07228200	    106.63566642	     -0.02562260	      0.01144180	     -0.00520385	     64.21323445	    110.49380743	      0.80940307	      8.64068794	      4.92298690
      5.28813560	     -4.85875357	     -0.99096946	      1.14054440	      0.21895805	      0.94872226	     -0.04946500	      3.92081872	     -3.47174855	     -8.43132917	      2.96225119	      0.05170104	      2.83912790	     -8.29276410	     -7.49999987	      3.37934533	     -3.77082050	     -8.46092217	      1.55038648	      0.02705935	      8.51004037	     -0.47794566	     -7.49999987	      3.40814682	     -1.04077776	     -1.38884925	     -0.02697287	     -0.00807072	     -0.00626600	    -23.70019881	      4.09481251	      5.22611296	     32.39453943	    113.19005189	     -0.02769939	      0.01186585	     -0.00524248	     65.91871522	    110.80783200	      2.07873375	      7.06286980	      2.22360389
      5.30508470	     -4.86738002	     -0.92385488	      1.11673514	      0.21476706	      0.95162792	     -0.05394443	      4.02905504	     -3.62746979	     -8.39537747	      2.94651803	      0.05142644	      2.77848219	     -8.24417321	     -7.49999987	      3.45774565	     -3.59838070	     -8.35391112	      1.49675894	      0.02612337	      8.49204086	     -0.43182514	     -7.49999987	      3.32139902	     -0.99326453	     -1.48457687	     -0.02555952	     -0.00800122	     -0.00606052	    -23.73609327	      4.36634694	      5.20219143	     32.39403218	    113.19088489	     -0.02767632	      0.01139889	     -0.00515705	     65.99975254	    110.71246931	      2.09221171	      7.07170268	      2.22950103
      5.32203390	     -4.96491518	     -0.85056556	      1.08876484	      0.21451024	      0.95153552	     -0.05392318	      4.25978169	     -3.78469472	     -8.42108143	      2.93683549	      0.05125745	      2.63381674	     -8.16054789	     -7.49999987	      3.61006655	     -3.40767101	     -8.09602253	      1.38740514	      0.02421479	      8.29757566	     -0.60786724	     -7.49999987	      3.57307328	     -0.94854585	     -1.43616953	     -0.02452222	     -0.00862271	     -0.00604617	    -23.09298780	      4.55234334	      4.87466522	     32.30513197	    113.34658022	     -0.02633823	      0.01166982	     -0.00514486	     66.27835718	    110.19450351	      2.14643867	      6.66051172	      2.24001447
